# xmcd CD database file
#
# Track frame offsets:
#	150
#	15526
#	31515
#	50375
#	64921
#	81434
#	96933
#	115244
#	129635
#	144957
#
# Disc length: 2142 seconds
#
# Revision: 0
# Processed by: cddbd v1.5.2PL0 Copyright (c) Steve Scherf et al.
# Submitted via: CDex 1.51
#
DISCID=7e085c0a
DTITLE=Shane Yellowbird - Life Is Calling My Name
DYEAR=2006
DGENRE=Country
TTITLE0=They're All About You
TTITLE1=What a Beautiful Concept
TTITLE2=Pickup Truck
TTITLE3=Get Away With You
TTITLE4=I Remember the Music
TTITLE5=Drive Me Home
TTITLE6=Here
TTITLE7=A Summer Day
TTITLE8=Easy
TTITLE9=Life Is Calling My Name
EXTD=YEAR: 2006
EXTT0=
EXTT1=
EXTT2=
EXTT3=
EXTT4=
EXTT5=
EXTT6=
EXTT7=
EXTT8=
EXTT9=
PLAYORDER=
